<svg width="333" height="274" viewBox="0 0 333 274" fill="none" xmlns="http://www.w3.org/2000/svg">
<path d="M333 212.307C320.887 214.842 313.395 212.419 306.672 204.113L258.866 149.69L251.956 142.155L196.127 204.293C189.748 211.768 183.056 215.022 171.152 212.376L242.643 133.412L176.084 62.0868C187.531 60.2544 195.44 61.1877 202.464 69.6218L252.05 124.721L302 69.9215C308.4 62.4464 315.278 59.6037 326.767 62.3608L300.959 90.5143L265.994 127.975C261.832 132.256 262.404 135.185 266.233 139.321L333 212.307ZM0.08325 132.094L5.93156 108.427C21.8531 61.5902 87.1003 42.1276 132.097 71.0689C158.394 88.0911 164.929 112.169 163.628 139.141H15.4013C13.1743 187.69 55.6422 216.991 109.786 202.041C128.777 196.792 139.964 184.556 145.563 169.246C148.404 161.574 153.107 160.376 161.869 162.568C157.395 181.713 147.3 197.708 125.968 207.718C94.0933 222.702 48.5972 217.856 24.6628 197.032C10.4062 184.95 4.51631 169.64 1.87313 153.269C1.45688 150.563 0.624375 147.986 0 145.391C0.0555 140.962 0.08325 136.532 0.08325 132.102V132.094ZM15.6718 128.84H149.621C148.747 93.7338 122.18 68.7998 85.8724 68.5857C46.0164 68.3289 17.3993 92.672 15.6718 128.84Z" fill="#FFF7F7"/>
</svg>
