<svg width="101" height="101" viewBox="0 0 101 101" fill="none" xmlns="http://www.w3.org/2000/svg">
<path d="M92.5833 23.1458H37.875C33.2458 23.1458 29.4583 26.9333 29.4583 31.5625V69.4375C29.4583 74.1087 33.2458 77.8541 37.875 77.8541H92.5833C97.2546 77.8541 101 74.1087 101 69.4375V31.5625C101 26.9333 97.2546 23.1458 92.5833 23.1458ZM92.5833 69.4375H37.875V38.5904L65.2292 52.6041L92.5833 38.5904V69.4375ZM65.2292 45.4921L37.875 31.5625H92.5833L65.2292 45.4921ZM21.0417 69.4375C21.0417 70.1529 21.1679 70.8262 21.2521 71.5416H4.20833C1.88533 71.5416 0 69.6479 0 67.3333C0 65.0187 1.88533 63.125 4.20833 63.125H21.0417V69.4375ZM12.625 29.4583H21.2521C21.1679 30.1738 21.0417 30.8471 21.0417 31.5625V37.875H12.625C10.3104 37.875 8.41667 35.9812 8.41667 33.6667C8.41667 31.3521 10.3104 29.4583 12.625 29.4583ZM4.20833 50.5C4.20833 48.1854 6.10208 46.2917 8.41667 46.2917H21.0417V54.7083H8.41667C6.10208 54.7083 4.20833 52.8146 4.20833 50.5Z" fill="#70FF00"/>
</svg>
